<?xml version="1.0" encoding="UTF-8" standalone="no"?>
<!-- Created with Inkscape (http://www.inkscape.org/) -->

<svg
   xmlns:dc="http://purl.org/dc/elements/1.1/"
   xmlns:cc="http://creativecommons.org/ns#"
   xmlns:rdf="http://www.w3.org/1999/02/22-rdf-syntax-ns#"
   xmlns:svg="http://www.w3.org/2000/svg"
   xmlns="http://www.w3.org/2000/svg"
   xmlns:sodipodi="http://sodipodi.sourceforge.net/DTD/sodipodi-0.dtd"
   xmlns:inkscape="http://www.inkscape.org/namespaces/inkscape"
   width="1920"
   height="1080"
   viewBox="0 0 1920 1080"
   id="svg2"
   version="1.1"
   inkscape:version="0.91 r13725"
   sodipodi:docname="egg-bg.svg"
   inkscape:export-filename="/media/yukino/Documents/Works/Paints/Wallpapers/KarasamaEgg.pne"
   inkscape:export-xdpi="90"
   inkscape:export-ydpi="90">
  <defs
     id="defs4" />
  <sodipodi:namedview
     id="base"
     pagecolor="#4f5178"
     bordercolor="#666666"
     borderopacity="1.0"
     inkscape:pageopacity="0"
     inkscape:pageshadow="2"
     inkscape:zoom="0.35355339"
     inkscape:cx="437.43429"
     inkscape:cy="333.05565"
     inkscape:document-units="px"
     inkscape:current-layer="layer1"
     showgrid="false"
     units="px"
     borderlayer="false"
     inkscape:showpageshadow="true"
     inkscape:window-width="1920"
     inkscape:window-height="1052"
     inkscape:window-x="1920"
     inkscape:window-y="595"
     inkscape:window-maximized="1"
     showguides="true"
     inkscape:guide-bbox="true">
    <sodipodi:guide
       position="960,1176.5"
       orientation="1,0"
       id="guide4150" />
    <sodipodi:guide
       position="-1255.1875,540"
       orientation="0,1"
       id="guide4152" />
  </sodipodi:namedview>
  <metadata
     id="metadata7">
    <rdf:RDF>
      <cc:Work
         rdf:about="">
        <dc:format>image/svg+xml</dc:format>
        <dc:type
           rdf:resource="http://purl.org/dc/dcmitype/StillImage" />
        <dc:title></dc:title>
      </cc:Work>
    </rdf:RDF>
  </metadata>
  <g
     inkscape:label="Layer 1"
     inkscape:groupmode="layer"
     id="layer1"
     transform="translate(0,27.637808)">
    <g
       id="g5516"
       transform="matrix(0.91484673,0,0,0.91484673,94.42883,91.106564)">
      <path
         sodipodi:nodetypes="cssccssssssscc"
         inkscape:connector-curvature="0"
         d="m 1329.9117,640.61973 c 60.8662,48.31031 49.9957,116.01057 -1.0614,140.65882 -7.25,3.5 -47.4752,18.67105 -95.9562,8.19771 -37.6448,-8.13241 -40.5532,-13.76577 -71.9815,-14.60176 -9.6615,0.0966 -17.1858,1.1086 -25.5327,3.9515 -48.9773,15.98134 -135.157,38.78496 -189.00758,38.78496 -110.13082,0 -220.1233,-35.32075 -297.99755,-98.19209 -77.87425,-62.87135 -121.62355,-148.14319 -121.62355,-237.05669 0,-88.9135 43.7493,-174.18534 121.62355,-237.05668 77.87426,-62.87135 187.86673,-98.1921 297.99755,-98.1921 110.13078,0 211.37868,35.32075 289.25288,98.19209 77.8743,62.87134 121.6236,148.14318 121.6236,237.05669 0,52.4309 -4.6271,69.80692 -33.0793,115.85871 -9.4497,18.11527 -7.224,32.00975 5.7422,42.39884 z"
         style="fill:#f5d8c0;fill-opacity:1;fill-rule:nonzero;stroke:#4e4c61;stroke-width:3;stroke-linecap:round;stroke-linejoin:round;stroke-miterlimit:4;stroke-dasharray:none;stroke-opacity:1"
         id="path4520-5" />
      <path
         sodipodi:nodetypes="cssscssssssscc"
         inkscape:connector-curvature="0"
         d="m 1327.9555,641.04005 c 54.4851,42.47218 50.2428,97.68334 -1.6355,121.23851 -7.2987,3.31393 -47.2222,16.48489 -95.445,6.01155 -37.4442,-8.13241 -51.702,-18.41573 -75.3007,-16.8914 -5.1486,0.33257 -10.5097,0.72213 -13.943,2.0289 -48.7164,15.98134 -142.16468,42.9972 -195.72843,42.9972 -109.54413,0 -225.95277,-45.21255 -296.43334,-96.00593 C 575.6661,647.23081 528.49389,542.51812 528.49389,483.36219 c 0,-88.9135 43.51624,-174.18534 120.97564,-237.05667 77.4594,-62.87135 186.88921,-98.1921 296.43334,-98.1921 109.54413,0 210.22933,35.32075 287.68873,98.19209 77.4594,62.87133 120.9757,148.14317 120.9757,237.05668 0,52.4309 -10.6144,53.6327 -38.915,99.68449 -10.9742,24.60891 -8.8228,38.53852 12.3032,57.99337 z"
         style="fill:#f3f1e5;fill-opacity:1;fill-rule:nonzero;stroke:#4e4c61;stroke-width:0;stroke-linecap:round;stroke-linejoin:round;stroke-miterlimit:4;stroke-dasharray:none;stroke-opacity:1"
         id="path4520-5-3" />
    </g>
    <g
       id="g5512"
       transform="matrix(0.91484673,0,0,0.91484673,88.59913,79.787791)">
      <ellipse
         ry="48.418922"
         rx="52.661564"
         cy="808.30627"
         cx="1429.0592"
         id="path4520"
         style="fill:#f5d8c0;fill-opacity:1;fill-rule:nonzero;stroke:#4e4c61;stroke-width:3;stroke-linecap:round;stroke-linejoin:round;stroke-miterlimit:4;stroke-dasharray:none;stroke-opacity:1" />
      <path
         sodipodi:nodetypes="sssss"
         inkscape:connector-curvature="0"
         id="path4520-56"
         d="m 1479.308,806.97636 c 0,25.25113 -22.4892,31.43424 -50.2309,31.43422 -27.7417,2e-5 -50.2309,-6.18309 -50.2309,-31.43422 0,-25.25112 22.4892,-45.7212 50.2309,-45.72118 27.7417,-2e-5 50.2309,20.47006 50.2309,45.72118 z"
         style="opacity:1;fill:#f3f1e5;fill-opacity:1;fill-rule:nonzero;stroke:#4e4c61;stroke-width:0;stroke-linecap:round;stroke-linejoin:round;stroke-miterlimit:4;stroke-dasharray:none;stroke-opacity:1" />
    </g>
  </g>
</svg>
